<?xml version="1.0" encoding="UTF-8" standalone="no"?>
<svg
   xmlns:dc="http://purl.org/dc/elements/1.1/"
   xmlns:cc="http://creativecommons.org/ns#"
   xmlns:rdf="http://www.w3.org/1999/02/22-rdf-syntax-ns#"
   xmlns:svg="http://www.w3.org/2000/svg"
   xmlns="http://www.w3.org/2000/svg"
   xmlns:sodipodi="http://sodipodi.sourceforge.net/DTD/sodipodi-0.dtd"
   xmlns:inkscape="http://www.inkscape.org/namespaces/inkscape"
   viewBox="283.347 139.626 35.631 35.641"
   width="35.631"
   height="35.641"
   version="1.1"
   id="svg844"
   sodipodi:docname="icon_square.svg"
   inkscape:version="1.0 (4035a4f, 2020-05-01)"
   inkscape:export-filename="/Users/jericks/Desktop/Icons/icon_square.png"
   inkscape:export-xdpi="2488.1355"
   inkscape:export-ydpi="2488.1355">
  <metadata
     id="metadata850">
    <rdf:RDF>
      <cc:Work
         rdf:about="">
        <dc:format>image/svg+xml</dc:format>
        <dc:type
           rdf:resource="http://purl.org/dc/dcmitype/StillImage" />
      </cc:Work>
    </rdf:RDF>
  </metadata>
  <defs
     id="defs848" />
  <sodipodi:namedview
     inkscape:document-rotation="0"
     pagecolor="#ffffff"
     bordercolor="#666666"
     borderopacity="1"
     objecttolerance="10"
     gridtolerance="10"
     guidetolerance="10"
     inkscape:pageopacity="0"
     inkscape:pageshadow="2"
     inkscape:window-width="1792"
     inkscape:window-height="1012"
     id="namedview846"
     showgrid="false"
     inkscape:zoom="3.952303"
     inkscape:cx="-6.9439408"
     inkscape:cy="19.123023"
     inkscape:window-x="40"
     inkscape:window-y="23"
     inkscape:window-maximized="0"
     inkscape:current-layer="svg844" />
  <g
     inkscape:export-ydpi="1341.3735"
     inkscape:export-xdpi="1341.3735"
     transform="matrix(1, 0, 0, 1, 272.037704, 129.351986)"
     style="display:inline;stroke-width:1.0015748;stroke-miterlimit:4;stroke-dasharray:none;stroke:#145514;stroke-opacity:1"
     id="g-12">
    <path
       id="path-38"
       style="fill:#1e90ff;fill-opacity:1;stroke:#145514;stroke-width:1.0015748;stroke-miterlimit:4;stroke-dasharray:none;stroke-opacity:1"
       d="m 11.310793,10.309236 c 11.868701,0 23.73741,0 35.606088,0 0,11.868697 0,23.737328 0,35.606 -11.868678,0 -23.737387,0 -35.606088,0 0,-11.868672 0,-23.737303 0,-35.606 z" />
    <g
       id="g-13"
       style="fill:#228b22;fill-opacity:1;stroke:#145514;stroke-opacity:1;stroke-width:1.0015748;stroke-miterlimit:4;stroke-dasharray:none">
      <path
         d="m 17.158357,10.273774 c 0.132944,0.686337 0.46749,1.465462 0.584808,2.15182 0.464843,2.409289 2.824494,3.611826 4.083521,5.591171 1.123648,1.184502 2.152805,3.432983 2.801391,4.206173 1.711114,1.418789 1.091169,3.479793 1.303391,5.388059 0.335227,1.979179 -0.412102,2.909418 -0.331326,5.001454 -0.50612,2.885917 -0.402145,5.931601 0.870181,8.61726 0.682616,1.700118 1.618491,2.662873 2.158199,4.622378 0.0035,0.0093 0.0077,0.01851 0.01145,0.02782 h 4.266683 c -0.01249,-1.90525 0.686316,-3.680209 1.095208,-5.511036 0.375793,-2.629424 2.669073,-4.202457 4.725569,-5.528047 2.09561,-0.973562 1.854623,-3.533076 1.716812,-5.452981 -1.552706,-1.037665 -2.431589,-2.628351 -4.310348,-3.131737 -1.677827,-0.964457 -3.506884,-1.505075 -4.993441,-2.788962 -1.856612,-1.387974 0.767956,-2.440798 1.158169,-3.592091 0.05238,-2.843519 -4.093628,1.840851 -4.505283,-1.311404 -1.838848,-2.009022 1.609679,-3.503297 2.517326,-1.31451 1.766871,1.628486 3.273482,-1.096557 1.50356,-2.328442 -0.303264,-1.66388 0.600775,-3.46664 1.87479,-4.646906 z"
         style="fill:#228b22;fill-opacity:1;stroke:#145514;stroke-width:1.0015748;stroke-miterlimit:4;stroke-dasharray:none;stroke-opacity:1"
         id="path-39" />
      <path
         d="m 13.337966,14.789362 c -0.646998,0.01317 -1.386186,0.184649 -2.028841,0.312846 v 9.425807 c 0.508579,0.28569 1.371885,-1.419419 2.309471,-1.534634 1.889098,-1.614803 1.209899,-4.406604 1.290471,-6.596776 0.104643,-1.30402 -0.628028,-1.626441 -1.571101,-1.607243 z"
         style="fill:#228b22;fill-opacity:1;stroke:#145514;stroke-width:1.0015748;stroke-linecap:butt;stroke-linejoin:miter;stroke-miterlimit:4;stroke-dasharray:none;stroke-opacity:1"
         id="path-40" />
      <path
         d="m 17.129083,30.894658 c -0.566466,-0.01747 -1.138747,0.203461 -1.575189,0.748509 -0.903831,1.455021 -2.652743,0.864304 -4.244769,0.749326 v 7.464323 c 0.01015,0.01171 0.01965,0.02383 0.02993,0.03549 1.074287,2.04814 3.859997,1.675229 5.622733,1.06103 1.179388,-2.295475 1.936388,-4.839137 2.30947,-7.392859 0.321626,-1.434967 -0.895947,-2.627417 -2.142172,-2.665817 z"
         style="fill:#228b22;fill-opacity:1;stroke:#145514;stroke-width:1.0015748;stroke-linecap:butt;stroke-linejoin:miter;stroke-miterlimit:4;stroke-dasharray:none;stroke-opacity:1"
         id="path-41" />
      <path
         d="m 46.202707,28.267108 c -0.358949,0.0061 -0.727158,0.06173 -1.108942,0.192644 -1.236383,1.266279 -1.789608,3.366442 -0.457414,4.778066 0.29208,1.415874 1.413305,2.108616 2.303583,2.997796 v -7.917647 c -0.242148,-0.03502 -0.487392,-0.05514 -0.737227,-0.05086 z"
         style="fill:#228b22;fill-opacity:1;stroke:#145514;stroke-width:1.0015748;stroke-linecap:butt;stroke-linejoin:miter;stroke-miterlimit:4;stroke-dasharray:none;stroke-opacity:1"
         id="path-42" />
      <path
         d="m 46.939934,13.655068 c -1.939232,0.105456 -4.246641,0.708451 -4.416319,2.971306 -0.06532,2.217479 0.248022,4.482283 1.476575,6.397419 0.93014,0.468465 2.10722,1.905289 2.939744,1.806267 z"
         style="fill:#228b22;fill-opacity:1;stroke:#145514;stroke-width:1.0015748;stroke-linecap:butt;stroke-linejoin:miter;stroke-miterlimit:4;stroke-dasharray:none;stroke-opacity:1"
         id="path-43" />
    </g>
    <path
       d="m 11.310793,10.309236 c 11.868701,0 23.73741,0 35.606088,0 0,11.868697 0,23.737329 0,35.606 -11.868678,0 -23.737387,0 -35.606088,0 0,-11.868671 0,-23.737303 0,-35.606 z"
       style="display:inline;fill:none;fill-opacity:1;stroke:#145514;stroke-width:1.0015748;stroke-miterlimit:4;stroke-dasharray:none;stroke-opacity:1"
       id="path-44" />
  </g>
  <g
     transform="matrix(-0.1270191,-0.15434449,0.15849892,-0.12368978,285.8304,244.18708)"
     id="g856"
     inkscape:export-filename="/Users/jericks/earth_pen.png"
     inkscape:export-xdpi="1341.3735"
     inkscape:export-ydpi="1341.3735">
    <path
       id="path842"
       style="vector-effect:non-scaling-stroke;fill:#a0a0a0;stroke:#464646;stroke-width:2.31332;stroke-opacity:1"
       d="m 296.41011,230.41195 14.98005,19.69231 -5.53774,32.00219 -18.4018,0.0859 -5.83614,-31.94911 z" />
    <rect
       id="rect844"
       style="fill:#7e3f3f;stroke:#5c2e2e;stroke-opacity:1"
       height="148.50999"
       width="18.245001"
       y="281.79523"
       x="287.79041" />
    <rect
       id="rect846"
       style="fill:#a0a0a0;stroke:#464646;stroke-linecap:round;stroke-linejoin:round;stroke-opacity:1"
       height="20.792999"
       width="21.083"
       y="410.73322"
       x="286.1824" />
    <circle
       cx="296.36301"
       cy="256.845"
       r="3.9619999"
       id="circle850" />
    <rect
       x="295.05701"
       y="233.368"
       width="2.9170001"
       height="21.004999"
       id="rect852" />
    <path
       d="m 24.083,8.206 1.769,2.627 H 22.57 Z"
       transform="rotate(-120.55798,223.8165,43.488679)"
       id="path854" />
  </g>
</svg>
