<?xml version="1.0" encoding="UTF-8" standalone="no"?>
<svg
   xmlns:dc="http://purl.org/dc/elements/1.1/"
   xmlns:cc="http://creativecommons.org/ns#"
   xmlns:rdf="http://www.w3.org/1999/02/22-rdf-syntax-ns#"
   xmlns:svg="http://www.w3.org/2000/svg"
   xmlns="http://www.w3.org/2000/svg"
   xmlns:sodipodi="http://sodipodi.sourceforge.net/DTD/sodipodi-0.dtd"
   xmlns:inkscape="http://www.inkscape.org/namespaces/inkscape"
   inkscape:export-ydpi="213.25"
   inkscape:export-xdpi="213.25"
   inkscape:export-filename="/Users/jericks/Documents/Icons/logo_javascript.png"
   inkscape:version="1.0 (4035a4f, 2020-05-01)"
   sodipodi:docname="logo_javascript.svg"
   id="svg3347"
   version="1.1"
   height="116.595"
   width="451.138"
   viewBox="18.893 22.328 451.138 116.595">
  <metadata
     id="metadata3353">
    <rdf:RDF>
      <cc:Work
         rdf:about="">
        <dc:format>image/svg+xml</dc:format>
        <dc:type
           rdf:resource="http://purl.org/dc/dcmitype/StillImage" />
      </cc:Work>
    </rdf:RDF>
  </metadata>
  <defs
     id="defs3351" />
  <sodipodi:namedview
     inkscape:current-layer="svg3347"
     inkscape:window-maximized="1"
     inkscape:window-y="23"
     inkscape:window-x="0"
     inkscape:cy="58.297501"
     inkscape:cx="225.569"
     inkscape:zoom="2.4294118"
     showgrid="false"
     id="namedview3349"
     inkscape:window-height="1012"
     inkscape:window-width="1792"
     inkscape:pageshadow="2"
     inkscape:pageopacity="0"
     guidetolerance="10"
     gridtolerance="10"
     objecttolerance="10"
     borderopacity="1"
     bordercolor="#666666"
     pagecolor="#ffffff" />
  <g
     id="g950"
     transform="matrix(3.117305, 0, 0, 3.117305, -14.892677, -130.754242)"
     style="">
    <circle
       style="fill: rgb(30, 144, 255); fill-opacity: 1; stroke-width: 0.460711; stroke-miterlimit: 4; stroke-dasharray: none; stroke-opacity: 1; stroke: rgb(27, 114, 27);"
       id="path1002-9-0-89"
       cx="28.915178"
       cy="68.432602"
       r="18.077129" />
    <g
       id="g1278"
       style="stroke:#145514;stroke-opacity:1;fill:#228b22;fill-opacity:1">
      <path
         d="m 29.063198,50.334406 a 18.077129,18.077129 0 0 0 -10.85323,3.672943 c 0.92489,1.544532 2.584303,2.631883 3.575787,4.190616 1.147007,1.209126 2.197558,3.504351 2.859627,4.293614 1.746688,1.448284 1.113852,3.552132 1.330487,5.500067 0.342195,2.020325 -0.420667,2.969903 -0.338214,5.10543 -0.516642,2.945911 -0.410506,6.054911 0.88827,8.796401 0.68137,1.697015 1.608913,2.676899 2.164837,4.589594 a 18.077129,18.077129 0 0 0 0.441882,0.0055 18.077129,18.077129 0 0 0 3.983112,-0.444386 c 0.112903,-1.721977 0.723835,-3.352898 1.098278,-5.029473 0.383603,-2.684085 2.724556,-4.289817 4.823806,-5.642964 2.139174,-0.993802 1.893178,-3.606524 1.752503,-5.566342 -1.584986,-1.059237 -2.482138,-2.682989 -4.399954,-3.19684 -1.712707,-0.984507 -3.579789,-1.536363 -5.097249,-2.84694 -1.895209,-1.416829 0.783923,-2.491543 1.182247,-3.666768 0.05347,-2.902632 -4.178729,1.879119 -4.598943,-1.338666 -1.877074,-2.050787 1.64314,-3.576127 2.569659,-1.341838 1.803601,1.662341 3.341532,-1.119351 1.534817,-2.376846 -0.266056,-1.459735 0.379309,-3.023179 1.391251,-4.198963 a 18.077129,18.077129 0 0 0 -4.239527,-0.504148 18.077129,18.077129 0 0 0 -0.06945,0 z"
         style="fill: rgb(34, 139, 34); stroke-width: 0.355347; stroke-miterlimit: 4; stroke-dasharray: none; stroke-opacity: 1; fill-opacity: 1; stroke: rgb(27, 114, 27);"
         id="rect10-8" />
      <path
         d="m 14.722825,57.388989 a 18.077129,18.077129 0 0 0 -3.343578,7.428522 c 0.523862,-0.279103 1.250822,-1.444016 2.027782,-1.539492 1.692472,-1.446727 1.365528,-3.818794 1.315796,-5.88903 z"
         style="fill: rgb(34, 139, 34); stroke-width: 0.355347; stroke-linecap: butt; stroke-linejoin: miter; stroke-miterlimit: 4; stroke-dasharray: none; stroke-opacity: 1; fill-opacity: 1; stroke: rgb(27, 114, 27);"
         id="path845-0" />
      <path
         d="m 16.881986,71.34307 c -0.542268,0.01212 -1.081754,0.242965 -1.499427,0.764571 -0.834752,1.343817 -2.375532,0.978736 -3.865088,0.809978 a 18.077129,18.077129 0 0 0 5.160184,8.740143 c 0.0471,-0.0156 0.09627,-0.03045 0.142064,-0.04641 1.203905,-2.343195 1.976646,-4.939735 2.357481,-7.546546 0.328315,-1.464797 -0.914574,-2.682039 -2.186706,-2.721237 -0.03614,-0.0011 -0.07236,-0.0013 -0.108508,-5.13e-4 z"
         style="fill: rgb(34, 139, 34); stroke-width: 0.355347; stroke-linecap: butt; stroke-linejoin: miter; stroke-miterlimit: 4; stroke-dasharray: none; stroke-opacity: 1; fill-opacity: 1; stroke: rgb(27, 114, 27);"
         id="path847-9" />
      <path
         d="m 46.668522,68.661397 c -0.366411,0.0063 -0.742277,0.06302 -1.131998,0.196652 -1.262086,1.292603 -1.826812,3.436423 -0.466923,4.877393 0.130735,0.633742 0.424144,1.125486 0.789111,1.554516 a 18.077129,18.077129 0 0 0 1.31663,-6.606024 c -0.167194,-0.01653 -0.335874,-0.02547 -0.50682,-0.02254 z"
         style="fill: rgb(34, 139, 34); stroke-width: 0.323043; stroke-linecap: butt; stroke-linejoin: miter; stroke-miterlimit: 4; stroke-dasharray: none; stroke-opacity: 1; fill-opacity: 1; stroke: rgb(27, 114, 27);"
         id="path849-5" />
      <path
         d="m 42.91211,56.823407 c -0.06116,2.249293 0.262268,4.543579 1.508107,6.485662 0.759781,0.382664 1.680751,1.397554 2.453971,1.73631 A 18.077129,18.077129 0 0 0 42.91211,56.823407 Z"
         style="fill: rgb(34, 139, 34); stroke-width: 0.323043; stroke-linecap: butt; stroke-linejoin: miter; stroke-miterlimit: 4; stroke-dasharray: none; stroke-opacity: 1; fill-opacity: 1; stroke: rgb(27, 114, 27);"
         id="path837-7" />
    </g>
    <circle
       r="18.077129"
       cy="68.417816"
       cx="29.086863"
       id="path1002-9-0"
       style="fill: none; stroke-width: 0.46071; stroke-miterlimit: 4; stroke-dasharray: none; stroke-opacity: 1; stroke: rgb(27, 114, 27);" />
  </g>
  <text
     style="font: bold 22.915px / 1.25 &quot;Trebuchet MS&quot;; display: inline; fill: rgb(34, 139, 34); fill-opacity: 1; stroke: rgb(20, 85, 20); stroke-width: 0.572876; stroke-opacity: 1; white-space: pre;"
     x="145.901"
     y="89.281"
     id="text1130-62"><tspan
       id="tspan1128-83"
       x="145.901"
       y="89.281"
       style="font-style: normal; font-weight: bold; font-stretch: normal; font-size: 71.4px; font-family: &quot;Trebuchet MS&quot;; font-variant: normal; fill: rgb(34, 139, 34); fill-opacity: 1; stroke: rgb(20, 85, 20); stroke-width: 0.572876; stroke-opacity: 1; word-spacing: 0px;">GeoScript</tspan></text>
  <text
     id="text1130-3-6"
     y="121.437"
     x="153.533"
     style="font: italic bold 10.7742px / 1.25 &quot;Trebuchet MS&quot;; display: inline; fill: rgb(34, 139, 34); fill-opacity: 1; stroke: rgb(20, 85, 20); stroke-width: 0.469; stroke-miterlimit: 4; stroke-dasharray: none; stroke-opacity: 1; white-space: pre;"><tspan
       style="font-style: italic; font-weight: bold; font-stretch: normal; font-size: 31.8px; font-family: &quot;Trebuchet MS&quot;; font-variant: normal; fill: rgb(34, 139, 34); fill-opacity: 1; stroke: rgb(20, 85, 20); stroke-width: 0.469; stroke-miterlimit: 4; stroke-dasharray: none; stroke-opacity: 1; word-spacing: 0px;"
       y="121.437"
       x="153.533"
       id="tspan1128-8-1">JavaScript</tspan></text>
  <g
     inkscape:export-ydpi="415.1279"
     inkscape:export-xdpi="415.1279"
     inkscape:export-filename="/Users/jericks/earth_pen.png"
     id="g856"
     transform="matrix(-0.44788154,-0.54423348,0.55888242,-0.43614206,29.082648,395.32057)">
    <path
       d="m 296.41011,230.41195 14.98005,19.69231 -5.53774,32.00219 -18.4018,0.0859 -5.83614,-31.94911 z"
       style="vector-effect:non-scaling-stroke;fill:#a0a0a0;stroke:#464646;stroke-width:2.31332;stroke-opacity:1"
       id="path842" />
    <rect
       x="287.79041"
       y="281.79523"
       width="18.245001"
       height="148.50999"
       style="fill:#7e3f3f;stroke:#5c2e2e;stroke-opacity:1"
       id="rect844" />
    <rect
       x="286.1824"
       y="410.73322"
       width="21.083"
       height="20.792999"
       style="fill:#a0a0a0;stroke:#464646;stroke-linecap:round;stroke-linejoin:round;stroke-opacity:1"
       id="rect846" />
    <circle
       id="circle850"
       r="3.9619999"
       cy="256.845"
       cx="296.36301" />
    <rect
       id="rect852"
       height="21.004999"
       width="2.9170001"
       y="233.368"
       x="295.05701" />
    <path
       id="path854"
       transform="rotate(-120.55798,223.8165,43.488679)"
       d="m 24.083,8.206 1.769,2.627 H 22.57 Z" />
  </g>
</svg>
